Format : MPEG-4
Format profile : Base Media / Version 2
Codec ID : mp42
File size : 342 MiB
Duration : 1h 22mn
Overall bit rate : 581 Kbps
Encoded date : UTC 2010-10-22 20:18:58
Tagged date : UTC 2010-10-22 20:19:27
Writing application : mp4creator 1.6.1d

Video
ID : 1
Format : AVC
Format/Info : Advanced Video Codec
Format profile : Baseline@L1.3
Format settings, CABAC : No
Format settings, ReFrames : 1 frame
Codec ID : avc1
Codec ID/Info : Advanced Video Coding
Duration : 1h 22mn
Bit rate mode : Variable
Bit rate : 512 Kbps
Width : 480 pixels
Height : 272 pixels
Display aspect ratio : 16:9
Original display aspect ratio : 16:9
Frame rate mode : Constant
Frame rate : 24.000 fps
Resolution : 24 bits
Colorimetry : 4:2:0
Scan type : Progressive
Bits/(Pixel*Frame) : 0.163
Stream size : 302 MiB (88%)
Encoded date : UTC 2010-10-22 20:18:58
Tagged date : UTC 2010-10-22 20:19:26

Audio
ID : 2
Format : AAC
Format/Info : Advanced Audio Codec
Format version : Version 4
Format profile : LC
Format settings, SBR : Yes
Format settings, PS : No
Codec ID : 40
Duration : 1h 22mn
Bit rate mode : Variable
Bit rate : 66.15 Kbps
Maximum bit rate : 138 Kbps
Channel(s) : 2 channels
Channel positions : L R
Sampling rate : 48.0 KHz
Resolution : 16 bits
Stream size : 39.5 MiB (12%)
Encoded date : UTC 2010-10-22 20:19:27
Tagged date : UTC 2010-10-22 20:19:27

At a base in Northern Germany, a worker delivering secret codes finds a cocker spaniel puppy outside his office. He brings the puppy inside, showing her to his bloodhound, Rex. Rex senses something is wrong with the puppy and starts to bark at her, making the worker take him outside. Both are locked out of the office. Rex looks in the window seeing the puppy taking pictures of the top secret documents and later revealing to be Kitty Galore (voiced by Bette Midler), an evil female hairless cat. Rex turns out to be a dog agent and reports to HQ.
 
http://www.imdb.com/title/tt1287468/

screens
 
http://img830.imageshack.us/img830/7350/catsdogsh264vicemp4snap.jpg 
http://img213.imageshack.us/img213/7350/catsdogsh264vicemp4snap.jpg 
http://img202.imageshack.us/img202/7350/catsdogsh264vicemp4snap.jpg 
http://img227.imageshack.us/img227/7350/catsdogsh264vicemp4snap.jpg
 
http://img243.imageshack.us/img243/3100/catsdogsh264vicemp4thum.jpg